<svg width="187" height="71" viewBox="0 0 187 71" fill="none" xmlns="http://www.w3.org/2000/svg">
<path d="M25.4401 71C43.1229 71 53.6265 57.541 53.6265 34.7497C53.6265 26.1678 51.9402 18.9458 48.712 13.3653C44.0383 4.68956 35.9919 0 25.8255 0C10.6964 0 0 9.89498 0 23.7761C0 36.8131 9.63639 46.286 22.8864 46.286C31.0292 46.286 37.6301 42.5812 40.9065 36.1565H41.051C41.051 36.1565 41.2438 36.1565 41.292 36.1565C41.3883 36.1565 41.7256 36.1565 41.7256 36.1565C41.7256 51.6321 35.7028 60.8705 25.5364 60.8705C19.5619 60.8705 14.9364 57.6816 13.3464 52.57H0.963639C3.03546 63.6843 12.72 71 25.4401 71ZM25.8737 36.6724C17.8755 36.6724 12.19 31.1387 12.19 23.4009C12.19 15.8507 18.1646 10.0826 25.9219 10.0826C33.6792 10.0826 39.6538 15.9445 39.6538 23.5885C39.6538 31.1387 33.8237 36.6724 25.8737 36.6724Z" fill="black"/>
<path d="M73.9613 70.3435C78.5385 70.3435 81.6704 67.1546 81.6704 62.9339C81.6704 58.6664 78.5385 55.5244 73.9613 55.5244C69.4321 55.5244 66.2521 58.6664 66.2521 62.9339C66.2521 67.1546 69.4321 70.3435 73.9613 70.3435ZM73.9613 35.1717C78.5385 35.1717 81.6704 32.0297 81.6704 27.8091C81.6704 23.5416 78.5385 20.3996 73.9613 20.3996C69.4321 20.3996 66.2521 23.5416 66.2521 27.8091C66.2521 32.0297 69.4321 35.1717 73.9613 35.1717Z" fill="black"/>
<path d="M126.771 69.3587H138.672V56.7437H148.067V46.5205H138.672V1.68824H121.133C108.847 19.6962 99.066 34.7497 92.8023 45.9577V56.7437H126.771V69.3587ZM104.318 46.0984C112.412 32.2173 119.64 21.103 126.289 11.5363H126.963V46.8018H104.318V46.0984Z" fill="black"/>
<path d="M174.569 69.3587H187V1.68824H174.617L156.453 14.0687V25.6988L173.75 13.8811H174.569V69.3587Z" fill="black"/>
</svg>
