<svg width="75" height="75" viewBox="0 0 75 75" fill="none" xmlns="http://www.w3.org/2000/svg">
<rect x="0.5" y="0.5" width="74" height="74" rx="14.5" stroke="#E2E8F0"/>
<path d="M43.1384 30.2847C40.6972 30.2847 39.6654 31.4496 37.9653 31.4496C36.2221 31.4496 34.8925 30.2931 32.777 30.2931C30.7063 30.2931 28.4982 31.5574 27.0959 33.711C25.1269 36.748 25.4611 42.4679 28.6501 47.3407C29.7909 49.0851 31.3142 51.0413 33.3123 51.0625H33.3486C35.0851 51.0625 35.6009 49.9255 37.9907 49.9121H38.027C40.3811 49.9121 40.8534 51.0559 42.5826 51.0559H42.6189C44.617 51.0347 46.2221 48.8671 47.3628 47.1294C48.1838 45.8797 48.4889 45.2525 49.1186 43.8387C44.5056 42.0877 43.7645 35.548 48.3267 33.0408C46.9341 31.297 44.9772 30.2871 43.1324 30.2871L43.1384 30.2847Z" fill="#2D3748"/>
<path d="M42.6008 23.939C41.1477 24.0377 39.4524 24.9628 38.4594 26.1707C37.5585 27.2654 36.8174 28.8893 37.108 30.4641H37.2243C38.7719 30.4641 40.3558 29.5323 41.2809 28.3383C42.1722 27.2018 42.8479 25.5913 42.6008 23.939Z" fill="#2D3748"/>
</svg>
