<svg width="16" height="16" viewBox="0 0 16 16" fill="none" xmlns="http://www.w3.org/2000/svg">
<path fill-rule="evenodd" clip-rule="evenodd" d="M7.99984 9.33342C8.35346 9.33342 8.6926 9.19294 8.94265 8.94289C9.19269 8.69284 9.33317 8.3537 9.33317 8.00008C9.33317 7.64646 9.19269 7.30732 8.94265 7.05727C8.6926 6.80722 8.35346 6.66675 7.99984 6.66675C7.64622 6.66675 7.30708 6.80722 7.05703 7.05727C6.80698 7.30732 6.6665 7.64646 6.6665 8.00008C6.6665 8.3537 6.80698 8.69284 7.05703 8.94289C7.30708 9.19294 7.64622 9.33342 7.99984 9.33342ZM11.3332 8.00008C11.3332 8.88414 10.982 9.73198 10.3569 10.3571C9.73174 10.9822 8.88389 11.3334 7.99984 11.3334C7.11578 11.3334 6.26794 10.9822 5.64281 10.3571C5.01769 9.73198 4.6665 8.88414 4.6665 8.00008C4.6665 7.11603 5.01769 6.26818 5.64281 5.64306C6.26794 5.01794 7.11578 4.66675 7.99984 4.66675C8.88389 4.66675 9.73174 5.01794 10.3569 5.64306C10.982 6.26818 11.3332 7.11603 11.3332 8.00008Z" fill="black"/>
</svg>
