<svg width="16" height="16" viewBox="0 0 16 16" fill="none" xmlns="http://www.w3.org/2000/svg">
<path fill-rule="evenodd" clip-rule="evenodd" d="M7.99984 9.33329C8.35346 9.33329 8.6926 9.19282 8.94265 8.94277C9.19269 8.69272 9.33317 8.35358 9.33317 7.99996C9.33317 7.64634 9.19269 7.3072 8.94265 7.05715C8.6926 6.8071 8.35346 6.66663 7.99984 6.66663C7.64622 6.66663 7.30708 6.8071 7.05703 7.05715C6.80698 7.3072 6.6665 7.64634 6.6665 7.99996C6.6665 8.35358 6.80698 8.69272 7.05703 8.94277C7.30708 9.19282 7.64622 9.33329 7.99984 9.33329ZM11.3332 7.99996C11.3332 8.88401 10.982 9.73186 10.3569 10.357C9.73174 10.9821 8.88389 11.3333 7.99984 11.3333C7.11578 11.3333 6.26794 10.9821 5.64281 10.357C5.01769 9.73186 4.6665 8.88401 4.6665 7.99996C4.6665 7.1159 5.01769 6.26806 5.64281 5.64294C6.26794 5.01782 7.11578 4.66663 7.99984 4.66663C8.88389 4.66663 9.73174 5.01782 10.3569 5.64294C10.982 6.26806 11.3332 7.1159 11.3332 7.99996Z" fill="black"/>
</svg>
