<svg width="75" height="75" viewBox="0 0 75 75" fill="none" xmlns="http://www.w3.org/2000/svg">
<rect x="0.5" y="0.5" width="74" height="74" rx="14.5" stroke="#E2E8F0"/>
<g clip-path="url(#clip0_344_1532)">
<path d="M50.4163 37.5002C50.4163 30.3702 44.6297 24.5835 37.4997 24.5835C30.3697 24.5835 24.583 30.3702 24.583 37.5002C24.583 43.7518 29.0263 48.9572 34.9163 50.1585V41.3752H32.333V37.5002H34.9163V34.271C34.9163 31.7781 36.9443 29.7502 39.4372 29.7502H42.6663V33.6252H40.083C39.3726 33.6252 38.7913 34.2064 38.7913 34.9168V37.5002H42.6663V41.3752H38.7913V50.3522C45.3143 49.7064 50.4163 44.2039 50.4163 37.5002Z" fill="#2D3748"/>
</g>
<defs>
<clipPath id="clip0_344_1532">
<rect width="31" height="31" fill="white" transform="translate(22 22)"/>
</clipPath>
</defs>
</svg>
