<svg width="75" height="75" viewBox="0 0 75 75" fill="none" xmlns="http://www.w3.org/2000/svg">
<rect x="0.5" y="0.5" width="74" height="74" rx="14.5" stroke="#E2E8F0"/>
<path d="M47.6794 35.8819L47.5734 35.4323H37.8028V39.5677H43.6406C43.0345 42.4458 40.222 43.9608 37.9247 43.9608C36.2531 43.9608 34.4911 43.2577 33.3248 42.1275C32.7095 41.5217 32.2197 40.8005 31.8835 40.0051C31.5473 39.2098 31.3713 38.356 31.3655 37.4925C31.3655 35.7506 32.1483 34.0083 33.2873 32.8622C34.4264 31.7161 36.1467 31.0748 37.8572 31.0748C39.8161 31.0748 41.22 32.115 41.745 32.5894L44.6836 29.6662C43.8216 28.9087 41.4534 27 37.7625 27C34.9148 27 32.1844 28.0908 30.1884 30.0802C28.2187 32.0391 27.1992 34.8717 27.1992 37.5C27.1992 40.1283 28.1639 42.8194 30.0727 44.7937C32.1122 46.8994 35.0006 48 37.9748 48C40.6809 48 43.2459 46.9397 45.0741 45.0159C46.8712 43.1222 47.8008 40.5019 47.8008 37.755C47.8008 36.5986 47.6845 35.9119 47.6794 35.8819Z" fill="#2D3748"/>
</svg>
