<svg width="44" height="36" viewBox="0 0 44 36" fill="none" xmlns="http://www.w3.org/2000/svg">
<rect opacity="0.1" width="43.6966" height="36" rx="10" fill="#3DD598"/>
<path d="M21.8443 12C21.6188 11.9991 21.3931 12.0751 21.2309 12.228L15.5746 17.5614C15.2806 17.8386 15.315 18.2598 15.6515 18.502C15.9881 18.7443 16.4993 18.7159 16.7933 18.4386L21.0391 14.4353V23.3333C21.0391 23.7015 21.4014 24 21.8483 24C22.2952 24 22.6575 23.7015 22.6575 23.3333V14.4467L26.9041 18.4394C27.1986 18.7163 27.7099 18.7441 28.046 18.5014C28.3821 18.2588 28.4158 17.8376 28.1213 17.5606L22.518 12.2923C22.3724 12.1159 22.1268 12 21.8483 12L21.8443 12Z" fill="#DF2626"/>
</svg>
