<svg width="57" height="54" viewBox="0 0 57 54" fill="none" xmlns="http://www.w3.org/2000/svg">
<rect width="57" height="54" rx="20" fill="white"/>
<path fill-rule="evenodd" clip-rule="evenodd" d="M17.5073 20.4493C17.5073 17.2886 17.5458 16.2354 22.3043 16.2354C27.0627 16.2354 27.1012 17.2886 27.1012 20.4493C27.1012 23.61 27.1164 24.6633 22.3043 24.6633C17.4921 24.6633 17.5073 23.61 17.5073 20.4493Z" stroke="#0B1223" stroke-opacity="0.45" stroke-width="4" stroke-linecap="round" stroke-linejoin="round"/>
<path fill-rule="evenodd" clip-rule="evenodd" d="M32.5835 20.4493C32.5835 17.2886 32.622 16.2354 37.3804 16.2354C42.1388 16.2354 42.1774 17.2886 42.1774 20.4493C42.1774 23.61 42.1925 24.6633 37.3804 24.6633C32.5683 24.6633 32.5835 23.61 32.5835 20.4493Z" stroke="#0B1223" stroke-opacity="0.45" stroke-width="4" stroke-linecap="round" stroke-linejoin="round"/>
<path fill-rule="evenodd" clip-rule="evenodd" d="M17.5073 33.6932C17.5073 30.5325 17.5458 29.4792 22.3043 29.4792C27.0627 29.4792 27.1012 30.5325 27.1012 33.6932C27.1012 36.8539 27.1164 37.9072 22.3043 37.9072C17.4921 37.9072 17.5073 36.8539 17.5073 33.6932Z" stroke="#0B1223" stroke-opacity="0.45" stroke-width="4" stroke-linecap="round" stroke-linejoin="round"/>
<path fill-rule="evenodd" clip-rule="evenodd" d="M32.5835 33.6932C32.5835 30.5325 32.622 29.4792 37.3804 29.4792C42.1388 29.4792 42.1774 30.5325 42.1774 33.6932C42.1774 36.8539 42.1925 37.9072 37.3804 37.9072C32.5683 37.9072 32.5835 36.8539 32.5835 33.6932Z" stroke="#0B1223" stroke-opacity="0.45" stroke-width="4" stroke-linecap="round" stroke-linejoin="round"/>
</svg>
