<svg width="44" height="36" viewBox="0 0 44 36" fill="none" xmlns="http://www.w3.org/2000/svg">
<rect opacity="0.1" width="43.6966" height="36" rx="10" fill="#3DD598"/>
<path d="M21.844 12C21.6186 11.9991 21.3928 12.0751 21.2307 12.228L15.5744 17.5614C15.2803 17.8386 15.3148 18.2598 15.6513 18.502C15.9878 18.7443 16.499 18.7159 16.7931 18.4386L21.0389 14.4353V23.3333C21.0389 23.7015 21.4012 24 21.8481 24C22.295 24 22.6573 23.7015 22.6573 23.3333V14.4467L26.9038 18.4394C27.1984 18.7163 27.7096 18.7441 28.0457 18.5014C28.3819 18.2588 28.4156 17.8376 28.1211 17.5606L22.5177 12.2923C22.3722 12.1159 22.1265 12 21.8481 12L21.844 12Z" fill="#DF2626"/>
</svg>
