<svg width="41" height="36" viewBox="0 0 41 36" fill="none" xmlns="http://www.w3.org/2000/svg">
<rect opacity="0.1" width="40.7172" height="36" rx="10" fill="#981313"/>
<path d="M20.3548 12C20.1448 11.9991 19.9344 12.0751 19.7833 12.228L14.5126 17.5614C14.2386 17.8386 14.2707 18.2598 14.5843 18.502C14.8979 18.7443 15.3743 18.7159 15.6483 18.4386L19.6046 14.4353V23.3333C19.6046 23.7015 19.9422 24 20.3586 24C20.775 24 21.1126 23.7015 21.1126 23.3333V14.4467L25.0697 18.4394C25.3441 18.7163 25.8205 18.7441 26.1337 18.5014C26.4469 18.2588 26.4783 17.8376 26.2039 17.5606L20.9826 12.2923C20.8469 12.1159 20.6181 12 20.3586 12L20.3548 12Z" fill="#DF2626"/>
</svg>
