<svg width="41" height="36" viewBox="0 0 41 36" fill="none" xmlns="http://www.w3.org/2000/svg">
<rect opacity="0.1" width="40.7172" height="36" rx="10" fill="#981313"/>
<path d="M20.3551 12C20.145 11.9991 19.9346 12.0751 19.7835 12.228L14.5129 17.5614C14.2389 17.8386 14.271 18.2598 14.5846 18.502C14.8982 18.7443 15.3745 18.7159 15.6485 18.4386L19.6048 14.4353V23.3333C19.6048 23.7015 19.9424 24 20.3589 24C20.7753 24 21.1129 23.7015 21.1129 23.3333V14.4467L25.0699 18.4394C25.3444 18.7163 25.8207 18.7441 26.1339 18.5014C26.4471 18.2588 26.4786 17.8376 26.2041 17.5606L20.9829 12.2923C20.8472 12.1159 20.6183 12 20.3589 12L20.3551 12Z" fill="#DF2626"/>
</svg>
