<svg width="360" height="44" viewBox="0 0 360 44" fill="none" xmlns="http://www.w3.org/2000/svg">
<g clip-path="url(#clip0_42_342)">
<path opacity="0.35" d="M321.5 19.9997C321.5 18.8031 322.47 17.833 323.667 17.833H340.333C341.53 17.833 342.5 18.8031 342.5 19.9997V25.9997C342.5 27.1963 341.53 28.1663 340.333 28.1663H323.667C322.47 28.1663 321.5 27.1963 321.5 25.9997V19.9997Z" stroke="black"/>
<path opacity="0.4" d="M344 20.9995V24.9995C344.805 24.6607 345.328 23.8726 345.328 22.9995C345.328 22.1264 344.805 21.3383 344 20.9995Z" fill="black"/>
<path d="M323 20.6663C323 19.93 323.597 19.333 324.333 19.333H339.667C340.403 19.333 341 19.93 341 20.6663V25.333C341 26.0694 340.403 26.6663 339.667 26.6663H324.333C323.597 26.6663 323 26.0694 323 25.333V20.6663Z" fill="black"/>
<path fill-rule="evenodd" clip-rule="evenodd" d="M308.33 19.6079C310.546 19.608 312.677 20.4594 314.283 21.9862C314.404 22.1041 314.597 22.1026 314.716 21.9829L315.872 20.8162C315.933 20.7555 315.966 20.6733 315.966 20.5877C315.965 20.5021 315.931 20.4202 315.87 20.3602C311.655 16.3207 305.005 16.3207 300.79 20.3602C300.729 20.4202 300.694 20.502 300.693 20.5876C300.693 20.6732 300.726 20.7555 300.787 20.8162L301.943 21.9829C302.062 22.1028 302.255 22.1043 302.376 21.9862C303.982 20.4593 306.114 19.6079 308.33 19.6079ZM308.33 23.4036C309.547 23.4035 310.721 23.856 311.624 24.6732C311.746 24.7892 311.938 24.7867 312.057 24.6676L313.212 23.5009C313.273 23.4397 313.307 23.3567 313.306 23.2704C313.305 23.1842 313.269 23.1018 313.207 23.0419C310.459 20.4855 306.203 20.4855 303.455 23.0419C303.393 23.1018 303.357 23.1842 303.357 23.2705C303.356 23.3568 303.39 23.4398 303.451 23.5009L304.605 24.6676C304.724 24.7867 304.916 24.7892 305.038 24.6732C305.94 23.8566 307.113 23.4041 308.33 23.4036ZM310.643 25.9574C310.645 26.0439 310.611 26.1273 310.549 26.1879L308.552 28.2036C308.493 28.2628 308.413 28.2961 308.33 28.2961C308.247 28.2961 308.167 28.2628 308.108 28.2036L306.111 26.1879C306.049 26.1272 306.015 26.0438 306.017 25.9573C306.019 25.8708 306.056 25.7889 306.12 25.7309C307.396 24.652 309.264 24.652 310.54 25.7309C310.604 25.7889 310.641 25.8709 310.643 25.9574Z" fill="black"/>
<path fill-rule="evenodd" clip-rule="evenodd" d="M294.667 17.6665H293.667C293.114 17.6665 292.667 18.1142 292.667 18.6665V27.3332C292.667 27.8855 293.114 28.3332 293.667 28.3332H294.667C295.219 28.3332 295.667 27.8855 295.667 27.3332V18.6665C295.667 18.1142 295.219 17.6665 294.667 17.6665ZM289 19.9998H290C290.552 19.9998 291 20.4476 291 20.9998V27.3332C291 27.8855 290.552 28.3332 290 28.3332H289C288.448 28.3332 288 27.8855 288 27.3332V20.9998C288 20.4476 288.448 19.9998 289 19.9998ZM285.333 22.3332H284.333C283.781 22.3332 283.333 22.7809 283.333 23.3332V27.3332C283.333 27.8855 283.781 28.3332 284.333 28.3332H285.333C285.885 28.3332 286.333 27.8855 286.333 27.3332V23.3332C286.333 22.7809 285.885 22.3332 285.333 22.3332ZM280.667 24.3332H279.667C279.114 24.3332 278.667 24.7809 278.667 25.3332V27.3332C278.667 27.8855 279.114 28.3332 279.667 28.3332H280.667C281.219 28.3332 281.667 27.8855 281.667 27.3332V25.3332C281.667 24.7809 281.219 24.3332 280.667 24.3332Z" fill="black"/>
<path d="M37.3208 28.2563C40.0088 28.2563 41.6055 26.1543 41.6055 22.5947C41.6055 21.2544 41.3491 20.1265 40.8584 19.2549C40.1479 17.8999 38.9248 17.1675 37.3794 17.1675C35.0796 17.1675 33.4536 18.7129 33.4536 20.8809C33.4536 22.917 34.9185 24.3965 36.9326 24.3965C38.1704 24.3965 39.1738 23.8179 39.6719 22.8145H39.6938C39.6938 22.8145 39.7231 22.8145 39.7305 22.8145C39.7451 22.8145 39.7964 22.8145 39.7964 22.8145C39.7964 25.2314 38.8809 26.6743 37.3354 26.6743C36.4272 26.6743 35.7241 26.1763 35.4824 25.3779H33.6001C33.915 27.1138 35.3872 28.2563 37.3208 28.2563ZM37.3867 22.895C36.1709 22.895 35.3066 22.0308 35.3066 20.8223C35.3066 19.6431 36.2148 18.7422 37.394 18.7422C38.5732 18.7422 39.4814 19.6577 39.4814 20.8516C39.4814 22.0308 38.5952 22.895 37.3867 22.895Z" fill="black"/>
<path d="M44.6966 28.1538C45.3924 28.1538 45.8685 27.6558 45.8685 26.9966C45.8685 26.3301 45.3924 25.8394 44.6966 25.8394C44.0081 25.8394 43.5247 26.3301 43.5247 26.9966C43.5247 27.6558 44.0081 28.1538 44.6966 28.1538ZM44.6966 22.6606C45.3924 22.6606 45.8685 22.1699 45.8685 21.5107C45.8685 20.8442 45.3924 20.3535 44.6966 20.3535C44.0081 20.3535 43.5247 20.8442 43.5247 21.5107C43.5247 22.1699 44.0081 22.6606 44.6966 22.6606Z" fill="black"/>
<path d="M52.7242 28H54.5333V26.0298H55.9615V24.4331H54.5333V17.4312H51.8673C49.9996 20.2437 48.5128 22.5947 47.5606 24.3452V26.0298H52.7242V28ZM49.3111 24.3672C50.5416 22.1992 51.6402 20.4634 52.651 18.9692H52.7535V24.4771H49.3111V24.3672Z" fill="black"/>
<path d="M59.9901 28H61.8798V17.4312H59.9975L57.2362 19.3647V21.1812L59.8656 19.3354H59.9901V28Z" fill="black"/>
</g>
<defs>
<clipPath id="clip0_42_342">
<rect width="360" height="44" fill="white"/>
</clipPath>
</defs>
</svg>
