<svg width="23" height="20" viewBox="0 0 23 20" fill="none" xmlns="http://www.w3.org/2000/svg">
<path fill-rule="evenodd" clip-rule="evenodd" d="M7.44565 6.47185C7.44565 4.26815 9.47542 2.4817 11.9793 2.4817C14.4831 2.4817 16.5129 4.26815 16.5129 6.47185C16.5129 7.85557 15.7126 9.07478 14.4972 9.79052C17.2248 10.6885 19.1667 13.0033 19.1667 15.7173V17.3718H4.79184V15.7173C4.79184 13.0033 6.73373 10.6885 9.46133 9.79052C8.24592 9.07478 7.44565 7.85557 7.44565 6.47185ZM11.9793 8.71023C13.3839 8.71023 14.5225 7.70807 14.5225 6.47185C14.5225 5.23563 13.3839 4.23347 11.9793 4.23347C10.5747 4.23347 9.43602 5.23563 9.43602 6.47185C9.43602 7.70807 10.5747 8.71023 11.9793 8.71023ZM11.9793 11.1432C9.14595 11.1432 6.8422 13.1387 6.78335 15.62H17.1752C17.1163 13.1387 14.8126 11.1432 11.9793 11.1432Z" fill="#92929D"/>
</svg>
