<svg width="23" height="20" viewBox="0 0 23 20" fill="none" xmlns="http://www.w3.org/2000/svg">
<path fill-rule="evenodd" clip-rule="evenodd" d="M9.58334 1.66026H13.4166C14.4752 1.66026 15.3333 2.40359 15.3333 3.32054V9.13155H19.1666C20.2252 9.13155 21.0833 9.87489 21.0833 10.7918V17.433C21.0833 17.8915 20.6542 18.2631 20.1249 18.2631H2.87504C2.34577 18.2631 1.91671 17.8915 1.91671 17.433V7.05619C1.91671 6.13924 2.77483 5.3959 3.83337 5.3959H7.66668V3.32054C7.66668 2.40359 8.5248 1.66026 9.58334 1.66026ZM9.58334 16.6028H13.4166V3.32054H9.58334V16.6028ZM7.66668 7.05619H3.83337V16.6028H7.66668V7.05619ZM15.3333 16.6028H19.1666V10.7918H15.3333V16.6028Z" fill="#50B5FF"/>
</svg>
