<svg width="23" height="20" viewBox="0 0 23 20" fill="none" xmlns="http://www.w3.org/2000/svg">
<path fill-rule="evenodd" clip-rule="evenodd" d="M9.58308 1.66026H13.4164C14.4749 1.66026 15.3331 2.40359 15.3331 3.32054V9.13155H19.1664C20.2249 9.13155 21.083 9.87489 21.083 10.7918V17.433C21.083 17.8915 20.654 18.2631 20.1247 18.2631H2.87478C2.34551 18.2631 1.91645 17.8915 1.91645 17.433V7.05619C1.91645 6.13924 2.77457 5.3959 3.83311 5.3959H7.66642V3.32054C7.66642 2.40359 8.52454 1.66026 9.58308 1.66026ZM9.58308 16.6028H13.4164V3.32054H9.58308V16.6028ZM7.66642 7.05619H3.83311V16.6028H7.66642V7.05619ZM15.3331 16.6028H19.1664V10.7918H15.3331V16.6028Z" fill="#50B5FF"/>
</svg>
