<svg width="23" height="20" viewBox="0 0 23 20" fill="none" xmlns="http://www.w3.org/2000/svg">
<path fill-rule="evenodd" clip-rule="evenodd" d="M7.44548 6.47192C7.44548 4.26819 9.47527 2.48172 11.9791 2.48172C14.483 2.48172 16.5128 4.26819 16.5128 6.47192C16.5128 7.85565 15.7125 9.07488 14.4971 9.79063C17.2247 10.6887 19.1666 13.0035 19.1666 15.7175V17.372H4.79163V15.7175C4.79163 13.0035 6.73355 10.6887 9.46118 9.79063C8.24576 9.07488 7.44548 7.85565 7.44548 6.47192ZM11.9791 8.71032C13.3837 8.71032 14.5224 7.70815 14.5224 6.47192C14.5224 5.23568 13.3837 4.23352 11.9791 4.23352C10.5745 4.23352 9.43587 5.23568 9.43587 6.47192C9.43587 7.70815 10.5745 8.71032 11.9791 8.71032ZM11.9791 11.1434C9.1458 11.1434 6.84202 13.1389 6.78317 15.6202H17.1751C17.1163 13.1389 14.8125 11.1434 11.9791 11.1434Z" fill="#92929D"/>
</svg>
