<svg width="158" height="159" viewBox="0 0 158 159" fill="none" xmlns="http://www.w3.org/2000/svg">
<g filter="url(#filter0_d_65_2082)">
<path fill-rule="evenodd" clip-rule="evenodd" d="M70.1172 86.6405C67.9953 85.7084 61.1758 72.5441 65.711 63.9021C69.2614 57.1366 78.0841 54.2617 85.4184 57.4833C92.7526 60.7049 95.8194 68.8024 92.2689 75.5679C87.7337 84.2099 72.2391 87.5726 70.1172 86.6405Z" fill="url(#paint0_linear_65_2082)"/>
<path d="M70.5832 85.7525C70.5837 85.7527 70.5835 85.7525 70.5826 85.752C70.5745 85.7475 70.5123 85.7125 70.3963 85.6076C70.2754 85.4981 70.1277 85.3416 69.9572 85.1328C69.6164 84.7156 69.2209 84.1348 68.8041 83.4133C67.9715 81.9725 67.0884 80.0308 66.4061 77.8487C65.0266 73.4368 64.5414 68.2839 66.6292 64.3055C69.9019 58.0693 78.0841 55.3544 84.9524 58.3714C91.8208 61.3884 94.6233 68.9285 91.3507 75.1646C89.2629 79.143 84.564 82.0187 79.9377 83.7926C77.6496 84.6699 75.4411 85.2535 73.6913 85.5601C72.8152 85.7136 72.0724 85.7944 71.5033 85.812C71.2186 85.8207 70.9927 85.8132 70.8238 85.7953C70.6617 85.7782 70.593 85.7556 70.584 85.7527C70.583 85.7523 70.5828 85.7522 70.5832 85.7525Z" stroke="white" stroke-opacity="0.5" stroke-width="2"/>
<g filter="url(#filter1_d_65_2082)">
<path fill-rule="evenodd" clip-rule="evenodd" d="M83.4695 71.5777C84.6437 69.3402 83.6135 66.6568 81.1697 65.5833C78.7241 64.5091 75.7911 65.4516 74.6169 67.6891C73.4436 69.9249 74.4738 72.6083 76.9194 73.6826C79.3632 74.756 82.2962 73.8135 83.4695 71.5777Z" fill="url(#paint1_linear_65_2082)"/>
<path d="M80.7037 66.4714C82.6888 67.3434 83.4442 69.4729 82.5513 71.1743C81.6594 72.8739 79.3708 73.6666 77.3854 72.7945C75.398 71.9215 74.6434 69.7917 75.5351 68.0924C76.4279 66.3912 78.7165 65.5985 80.7037 66.4714Z" stroke="white" stroke-opacity="0.5" stroke-width="2"/>
</g>
</g>
<defs>
<filter id="filter0_d_65_2082" x="0" y="0" width="157.932" height="159" filterUnits="userSpaceOnUse" color-interpolation-filters="sRGB">
<feFlood flood-opacity="0" result="BackgroundImageFix"/>
<feColorMatrix in="SourceAlpha" type="matrix" values="0 0 0 0 0 0 0 0 0 0 0 0 0 0 0 0 0 0 127 0" result="hardAlpha"/>
<feOffset dy="8"/>
<feGaussianBlur stdDeviation="32"/>
<feColorMatrix type="matrix" values="0 0 0 0 0.925 0 0 0 0 0.458692 0 0 0 0 0.121021 0 0 0 1 0"/>
<feBlend mode="normal" in2="BackgroundImageFix" result="effect1_dropShadow_65_2082"/>
<feBlend mode="normal" in="SourceGraphic" in2="effect1_dropShadow_65_2082" result="shape"/>
</filter>
<filter id="filter1_d_65_2082" x="9.94653" y="8.97692" width="138.194" height="137.358" filterUnits="userSpaceOnUse" color-interpolation-filters="sRGB">
<feFlood flood-opacity="0" result="BackgroundImageFix"/>
<feColorMatrix in="SourceAlpha" type="matrix" values="0 0 0 0 0 0 0 0 0 0 0 0 0 0 0 0 0 0 127 0" result="hardAlpha"/>
<feOffset dy="8"/>
<feGaussianBlur stdDeviation="32"/>
<feColorMatrix type="matrix" values="0 0 0 0 0.925 0 0 0 0 0.458692 0 0 0 0 0.121021 0 0 0 0.2 0"/>
<feBlend mode="normal" in2="BackgroundImageFix" result="effect1_dropShadow_65_2082"/>
<feBlend mode="normal" in="SourceGraphic" in2="effect1_dropShadow_65_2082" result="shape"/>
</filter>
<linearGradient id="paint0_linear_65_2082" x1="71.9763" y1="63.1111" x2="89.1466" y2="73.5903" gradientUnits="userSpaceOnUse">
<stop stop-color="#92929D"/>
<stop offset="1"/>
</linearGradient>
<linearGradient id="paint1_linear_65_2082" x1="76.9611" y1="66.9381" x2="82.629" y2="70.4978" gradientUnits="userSpaceOnUse">
<stop stop-color="#92929D"/>
<stop offset="1"/>
</linearGradient>
</defs>
</svg>
