<svg width="153" height="159" viewBox="0 0 153 159" fill="none" xmlns="http://www.w3.org/2000/svg">
<g filter="url(#filter0_d_65_2074)">
<path fill-rule="evenodd" clip-rule="evenodd" d="M69.1077 86.6405C67.3469 85.7084 61.6883 72.5442 65.4515 63.9022C68.3976 57.1367 75.7185 54.2617 81.8044 57.4833C87.8903 60.705 90.435 68.8024 87.4889 75.5679C83.7256 84.2099 70.8684 87.5726 69.1077 86.6405Z" fill="url(#paint0_linear_65_2074)"/>
<path d="M69.5096 85.7175C69.4928 85.703 69.4617 85.6744 69.4164 85.6249C69.3255 85.5257 69.2092 85.3779 69.071 85.1741C68.795 84.767 68.4709 84.1942 68.127 83.4768C67.4405 82.0451 66.71 80.1106 66.145 77.933C65.0051 73.5392 64.5942 68.3755 66.3379 64.3714C69.0895 58.0525 75.8647 55.4705 81.404 58.4029C86.9435 61.3352 89.354 68.78 86.6025 75.0987C84.8589 79.1028 80.947 81.9782 77.124 83.7448C75.2293 84.6203 73.4031 85.2014 71.9604 85.506C71.2375 85.6587 70.6294 85.738 70.1685 85.7551C69.9379 85.7637 69.7605 85.756 69.6335 85.7398C69.57 85.7317 69.5304 85.7229 69.5096 85.7175Z" stroke="white" stroke-opacity="0.5" stroke-width="2"/>
<g filter="url(#filter1_d_65_2074)">
<path fill-rule="evenodd" clip-rule="evenodd" d="M80.1876 71.5777C81.1619 69.3402 80.307 66.6568 78.2792 65.5834C76.2499 64.5091 73.8161 65.4516 72.8418 67.6891C71.8682 69.9249 72.7231 72.6083 74.7524 73.6826C76.7802 74.756 79.214 73.8135 80.1876 71.5777Z" fill="url(#paint1_linear_65_2074)"/>
<path d="M77.8788 66.5029C79.3668 67.2905 80.0778 69.325 79.3012 71.1085C78.5254 72.89 76.6409 73.5508 75.1528 72.7631C73.6629 71.9744 72.9525 69.9396 73.7282 68.1583C74.5047 66.3751 76.3892 65.7143 77.8788 66.5029Z" stroke="white" stroke-opacity="0.5" stroke-width="2"/>
</g>
</g>
<defs>
<filter id="filter0_d_65_2074" x="0" y="0" width="152.901" height="159" filterUnits="userSpaceOnUse" color-interpolation-filters="sRGB">
<feFlood flood-opacity="0" result="BackgroundImageFix"/>
<feColorMatrix in="SourceAlpha" type="matrix" values="0 0 0 0 0 0 0 0 0 0 0 0 0 0 0 0 0 0 127 0" result="hardAlpha"/>
<feOffset dy="8"/>
<feGaussianBlur stdDeviation="32"/>
<feColorMatrix type="matrix" values="0 0 0 0 0.925 0 0 0 0 0.458692 0 0 0 0 0.121021 0 0 0 1 0"/>
<feBlend mode="normal" in2="BackgroundImageFix" result="effect1_dropShadow_65_2074"/>
<feBlend mode="normal" in="SourceGraphic" in2="effect1_dropShadow_65_2074" result="shape"/>
</filter>
<filter id="filter1_d_65_2074" x="8.25387" y="8.97691" width="136.522" height="137.358" filterUnits="userSpaceOnUse" color-interpolation-filters="sRGB">
<feFlood flood-opacity="0" result="BackgroundImageFix"/>
<feColorMatrix in="SourceAlpha" type="matrix" values="0 0 0 0 0 0 0 0 0 0 0 0 0 0 0 0 0 0 127 0" result="hardAlpha"/>
<feOffset dy="8"/>
<feGaussianBlur stdDeviation="32"/>
<feColorMatrix type="matrix" values="0 0 0 0 0.925 0 0 0 0 0.458692 0 0 0 0 0.121021 0 0 0 0.2 0"/>
<feBlend mode="normal" in2="BackgroundImageFix" result="effect1_dropShadow_65_2074"/>
<feBlend mode="normal" in="SourceGraphic" in2="effect1_dropShadow_65_2074" result="shape"/>
</filter>
<linearGradient id="paint0_linear_65_2074" x1="70.6503" y1="63.1111" x2="86.2135" y2="70.9927" gradientUnits="userSpaceOnUse">
<stop/>
<stop offset="1" stop-color="#C5CAD4"/>
</linearGradient>
<linearGradient id="paint1_linear_65_2074" x1="74.7869" y1="66.9381" x2="79.9445" y2="69.6259" gradientUnits="userSpaceOnUse">
<stop/>
<stop offset="1" stop-color="#C5CAD4"/>
</linearGradient>
</defs>
</svg>
