<svg width="24" height="32" viewBox="0 0 24 32" fill="none" xmlns="http://www.w3.org/2000/svg">
<path d="M10.33 22.1239H4.0293" stroke="black" stroke-width="4" stroke-linecap="round" stroke-linejoin="round"/>
<path d="M13.1406 9.20056H19.4413" stroke="black" stroke-width="4" stroke-linecap="round" stroke-linejoin="round"/>
<path fill-rule="evenodd" clip-rule="evenodd" d="M8.72629 9.12834C8.72629 7.4008 7.66813 6 6.36314 6C5.05816 6 4 7.4008 4 9.12834C4 10.8559 5.05816 12.2567 6.36314 12.2567C7.66813 12.2567 8.72629 10.8559 8.72629 9.12834Z" stroke="black" stroke-width="4" stroke-linecap="round" stroke-linejoin="round"/>
<path fill-rule="evenodd" clip-rule="evenodd" d="M20.0002 22.0717C20.0002 20.3442 18.9429 18.9434 17.6379 18.9434C16.3321 18.9434 15.2739 20.3442 15.2739 22.0717C15.2739 23.7992 16.3321 25.2 17.6379 25.2C18.9429 25.2 20.0002 23.7992 20.0002 22.0717Z" stroke="black" stroke-width="4" stroke-linecap="round" stroke-linejoin="round"/>
</svg>
