<svg width="153" height="159" viewBox="0 0 153 159" fill="none" xmlns="http://www.w3.org/2000/svg">
<g filter="url(#filter0_d_65_2070)">
<path fill-rule="evenodd" clip-rule="evenodd" d="M69.1075 86.6405C67.3468 85.7084 61.6881 72.5441 65.4513 63.9021C68.3974 57.1366 75.7184 54.2617 81.8043 57.4833C87.8901 60.7049 90.4349 68.8024 87.4888 75.5679C83.7255 84.2099 70.8683 87.5726 69.1075 86.6405Z" fill="url(#paint0_linear_65_2070)"/>
<path d="M69.5094 85.7175C69.4927 85.703 69.4616 85.6744 69.4162 85.6249C69.3253 85.5258 69.209 85.378 69.0709 85.1742C68.7949 84.767 68.4708 84.1942 68.1268 83.4768C67.4404 82.0451 66.7098 80.1106 66.1449 77.933C65.0049 73.5392 64.5941 68.3755 66.3377 64.3714C69.0893 58.0524 75.8645 55.4705 81.4039 58.4028C86.9433 61.3352 89.3539 68.78 86.6024 75.0987C84.8588 79.1028 80.9468 81.9782 77.1239 83.7448C75.2292 84.6203 73.403 85.2014 71.9602 85.506C71.2373 85.6587 70.6292 85.738 70.1684 85.7551C69.9378 85.7637 69.7604 85.756 69.6333 85.7398C69.5699 85.7317 69.5302 85.7229 69.5094 85.7175Z" stroke="white" stroke-opacity="0.5" stroke-width="2"/>
<g filter="url(#filter1_d_65_2070)">
<path fill-rule="evenodd" clip-rule="evenodd" d="M80.1872 71.5777C81.1615 69.3402 80.3067 66.6568 78.2789 65.5833C76.2495 64.5091 73.8157 65.4516 72.8414 67.6891C71.8678 69.9249 72.7227 72.6083 74.752 73.6826C76.7798 74.756 79.2136 73.8135 80.1872 71.5777Z" fill="url(#paint1_linear_65_2070)"/>
<path d="M77.8784 66.5028C79.3664 67.2905 80.0775 69.325 79.3008 71.1085C78.5251 72.89 76.6406 73.5508 75.1524 72.763C73.6625 71.9743 72.9521 69.9396 73.7278 68.1583C74.5043 66.3751 76.3888 65.7143 77.8784 66.5028Z" stroke="white" stroke-opacity="0.5" stroke-width="2"/>
</g>
</g>
<defs>
<filter id="filter0_d_65_2070" x="0" y="0" width="152.901" height="159" filterUnits="userSpaceOnUse" color-interpolation-filters="sRGB">
<feFlood flood-opacity="0" result="BackgroundImageFix"/>
<feColorMatrix in="SourceAlpha" type="matrix" values="0 0 0 0 0 0 0 0 0 0 0 0 0 0 0 0 0 0 127 0" result="hardAlpha"/>
<feOffset dy="8"/>
<feGaussianBlur stdDeviation="32"/>
<feColorMatrix type="matrix" values="0 0 0 0 0.925 0 0 0 0 0.458692 0 0 0 0 0.121021 0 0 0 1 0"/>
<feBlend mode="normal" in2="BackgroundImageFix" result="effect1_dropShadow_65_2070"/>
<feBlend mode="normal" in="SourceGraphic" in2="effect1_dropShadow_65_2070" result="shape"/>
</filter>
<filter id="filter1_d_65_2070" x="8.25339" y="8.97692" width="136.522" height="137.358" filterUnits="userSpaceOnUse" color-interpolation-filters="sRGB">
<feFlood flood-opacity="0" result="BackgroundImageFix"/>
<feColorMatrix in="SourceAlpha" type="matrix" values="0 0 0 0 0 0 0 0 0 0 0 0 0 0 0 0 0 0 127 0" result="hardAlpha"/>
<feOffset dy="8"/>
<feGaussianBlur stdDeviation="32"/>
<feColorMatrix type="matrix" values="0 0 0 0 0.925 0 0 0 0 0.458692 0 0 0 0 0.121021 0 0 0 0.2 0"/>
<feBlend mode="normal" in2="BackgroundImageFix" result="effect1_dropShadow_65_2070"/>
<feBlend mode="normal" in="SourceGraphic" in2="effect1_dropShadow_65_2070" result="shape"/>
</filter>
<linearGradient id="paint0_linear_65_2070" x1="70.6502" y1="63.1111" x2="86.2134" y2="70.9927" gradientUnits="userSpaceOnUse">
<stop/>
<stop offset="1" stop-color="#92929D"/>
</linearGradient>
<linearGradient id="paint1_linear_65_2070" x1="74.7866" y1="66.9381" x2="79.9441" y2="69.6259" gradientUnits="userSpaceOnUse">
<stop/>
<stop offset="1" stop-color="#92929D"/>
</linearGradient>
</defs>
</svg>
