<svg width="153" height="159" viewBox="0 0 153 159" fill="none" xmlns="http://www.w3.org/2000/svg">
<g filter="url(#filter0_d_65_2078)">
<path fill-rule="evenodd" clip-rule="evenodd" d="M69.1078 86.6405C67.347 85.7084 61.6884 72.5441 65.4516 63.9021C68.3977 57.1366 75.7187 54.2617 81.8045 57.4833C87.8904 60.7049 90.4351 68.8024 87.489 75.5679C83.7258 84.2099 70.8685 87.5726 69.1078 86.6405Z" fill="url(#paint0_linear_65_2078)"/>
<path d="M69.5097 85.7175C69.4929 85.703 69.4619 85.6744 69.4165 85.6249C69.3256 85.5258 69.2093 85.378 69.0711 85.1742C68.7951 84.767 68.471 84.1942 68.1271 83.4768C67.4406 82.0451 66.7101 80.1106 66.1451 77.933C65.0052 73.5392 64.5943 68.3755 66.338 64.3714C69.0896 58.0524 75.8648 55.4705 81.4041 58.4028C86.9436 61.3352 89.3542 68.78 86.6026 75.0987C84.859 79.1028 80.9471 81.9782 77.1241 83.7448C75.2294 84.6203 73.4032 85.2014 71.9605 85.506C71.2376 85.6587 70.6295 85.738 70.1686 85.7551C69.938 85.7637 69.7606 85.756 69.6336 85.7398C69.5702 85.7317 69.5305 85.7229 69.5097 85.7175Z" stroke="white" stroke-opacity="0.5" stroke-width="2"/>
<g filter="url(#filter1_d_65_2078)">
<path fill-rule="evenodd" clip-rule="evenodd" d="M80.1877 71.5777C81.162 69.3402 80.3072 66.6568 78.2793 65.5833C76.25 64.5091 73.8162 65.4516 72.8419 67.6891C71.8683 69.9249 72.7232 72.6083 74.7525 73.6826C76.7803 74.756 79.2141 73.8135 80.1877 71.5777Z" fill="url(#paint1_linear_65_2078)"/>
<path d="M77.8789 66.5028C79.3669 67.2905 80.078 69.325 79.3013 71.1085C78.5255 72.89 76.6411 73.5508 75.1529 72.763C73.663 71.9743 72.9526 69.9396 73.7283 68.1583C74.5048 66.3751 76.3893 65.7143 77.8789 66.5028Z" stroke="white" stroke-opacity="0.5" stroke-width="2"/>
</g>
</g>
<defs>
<filter id="filter0_d_65_2078" x="0" y="0" width="152.901" height="159" filterUnits="userSpaceOnUse" color-interpolation-filters="sRGB">
<feFlood flood-opacity="0" result="BackgroundImageFix"/>
<feColorMatrix in="SourceAlpha" type="matrix" values="0 0 0 0 0 0 0 0 0 0 0 0 0 0 0 0 0 0 127 0" result="hardAlpha"/>
<feOffset dy="8"/>
<feGaussianBlur stdDeviation="32"/>
<feColorMatrix type="matrix" values="0 0 0 0 0.925 0 0 0 0 0.458692 0 0 0 0 0.121021 0 0 0 1 0"/>
<feBlend mode="normal" in2="BackgroundImageFix" result="effect1_dropShadow_65_2078"/>
<feBlend mode="normal" in="SourceGraphic" in2="effect1_dropShadow_65_2078" result="shape"/>
</filter>
<filter id="filter1_d_65_2078" x="8.25388" y="8.97692" width="136.522" height="137.358" filterUnits="userSpaceOnUse" color-interpolation-filters="sRGB">
<feFlood flood-opacity="0" result="BackgroundImageFix"/>
<feColorMatrix in="SourceAlpha" type="matrix" values="0 0 0 0 0 0 0 0 0 0 0 0 0 0 0 0 0 0 127 0" result="hardAlpha"/>
<feOffset dy="8"/>
<feGaussianBlur stdDeviation="32"/>
<feColorMatrix type="matrix" values="0 0 0 0 0.925 0 0 0 0 0.458692 0 0 0 0 0.121021 0 0 0 0.2 0"/>
<feBlend mode="normal" in2="BackgroundImageFix" result="effect1_dropShadow_65_2078"/>
<feBlend mode="normal" in="SourceGraphic" in2="effect1_dropShadow_65_2078" result="shape"/>
</filter>
<linearGradient id="paint0_linear_65_2078" x1="70.6504" y1="63.1111" x2="86.2136" y2="70.9927" gradientUnits="userSpaceOnUse">
<stop/>
<stop offset="1" stop-color="#92929D"/>
</linearGradient>
<linearGradient id="paint1_linear_65_2078" x1="74.7871" y1="66.9381" x2="79.9446" y2="69.6259" gradientUnits="userSpaceOnUse">
<stop/>
<stop offset="1" stop-color="#92929D"/>
</linearGradient>
</defs>
</svg>
