<svg width="158" height="159" viewBox="0 0 158 159" fill="none" xmlns="http://www.w3.org/2000/svg">
<g filter="url(#filter0_d_65_2082)">
<path fill-rule="evenodd" clip-rule="evenodd" d="M70.1175 86.6405C67.9955 85.7084 61.1761 72.5441 65.7113 63.9021C69.2617 57.1366 78.0844 54.2617 85.4186 57.4833C92.7529 60.7049 95.8196 68.8024 92.2692 75.5679C87.734 84.2099 72.2394 87.5726 70.1175 86.6405Z" fill="url(#paint0_linear_65_2082)"/>
<path d="M70.5835 85.7525C70.584 85.7527 70.5837 85.7525 70.5828 85.752C70.5747 85.7475 70.5125 85.7125 70.3966 85.6076C70.2757 85.4981 70.128 85.3416 69.9575 85.1328C69.6167 84.7156 69.2212 84.1348 68.8043 83.4133C67.9718 81.9725 67.0886 80.0308 66.4063 77.8487C65.0269 73.4368 64.5417 68.2839 66.6295 64.3055C69.9021 58.0693 78.0844 55.3544 84.9526 58.3714C91.821 61.3884 94.6235 68.9285 91.3509 75.1646C89.2631 79.143 84.5642 82.0187 79.938 83.7926C77.6499 84.6699 75.4413 85.2535 73.6915 85.5601C72.8154 85.7136 72.0726 85.7944 71.5036 85.812C71.2189 85.8207 70.9929 85.8132 70.824 85.7953C70.6619 85.7782 70.5932 85.7556 70.5843 85.7527C70.5833 85.7523 70.583 85.7522 70.5835 85.7525Z" stroke="white" stroke-opacity="0.5" stroke-width="2"/>
<g filter="url(#filter1_d_65_2082)">
<path fill-rule="evenodd" clip-rule="evenodd" d="M83.4703 71.5777C84.6444 69.3402 83.6142 66.6568 81.1705 65.5833C78.7249 64.5091 75.7918 65.4516 74.6176 67.6891C73.4443 69.9249 74.4745 72.6083 76.9201 73.6826C79.3639 74.756 82.297 73.8135 83.4703 71.5777Z" fill="url(#paint1_linear_65_2082)"/>
<path d="M80.7044 66.4714C82.6895 67.3434 83.4449 69.4729 82.552 71.1743C81.6602 72.8739 79.3715 73.6666 77.3862 72.7945C75.3987 71.9215 74.6441 69.7917 75.5359 68.0924C76.4286 66.3912 78.7173 65.5985 80.7044 66.4714Z" stroke="white" stroke-opacity="0.5" stroke-width="2"/>
</g>
</g>
<defs>
<filter id="filter0_d_65_2082" x="0" y="0" width="157.933" height="159" filterUnits="userSpaceOnUse" color-interpolation-filters="sRGB">
<feFlood flood-opacity="0" result="BackgroundImageFix"/>
<feColorMatrix in="SourceAlpha" type="matrix" values="0 0 0 0 0 0 0 0 0 0 0 0 0 0 0 0 0 0 127 0" result="hardAlpha"/>
<feOffset dy="8"/>
<feGaussianBlur stdDeviation="32"/>
<feColorMatrix type="matrix" values="0 0 0 0 0.925 0 0 0 0 0.458692 0 0 0 0 0.121021 0 0 0 1 0"/>
<feBlend mode="normal" in2="BackgroundImageFix" result="effect1_dropShadow_65_2082"/>
<feBlend mode="normal" in="SourceGraphic" in2="effect1_dropShadow_65_2082" result="shape"/>
</filter>
<filter id="filter1_d_65_2082" x="9.94726" y="8.97692" width="138.194" height="137.358" filterUnits="userSpaceOnUse" color-interpolation-filters="sRGB">
<feFlood flood-opacity="0" result="BackgroundImageFix"/>
<feColorMatrix in="SourceAlpha" type="matrix" values="0 0 0 0 0 0 0 0 0 0 0 0 0 0 0 0 0 0 127 0" result="hardAlpha"/>
<feOffset dy="8"/>
<feGaussianBlur stdDeviation="32"/>
<feColorMatrix type="matrix" values="0 0 0 0 0.925 0 0 0 0 0.458692 0 0 0 0 0.121021 0 0 0 0.2 0"/>
<feBlend mode="normal" in2="BackgroundImageFix" result="effect1_dropShadow_65_2082"/>
<feBlend mode="normal" in="SourceGraphic" in2="effect1_dropShadow_65_2082" result="shape"/>
</filter>
<linearGradient id="paint0_linear_65_2082" x1="71.9765" y1="63.1111" x2="89.1468" y2="73.5903" gradientUnits="userSpaceOnUse">
<stop stop-color="#92929D"/>
<stop offset="1"/>
</linearGradient>
<linearGradient id="paint1_linear_65_2082" x1="76.9618" y1="66.9381" x2="82.6297" y2="70.4978" gradientUnits="userSpaceOnUse">
<stop stop-color="#92929D"/>
<stop offset="1"/>
</linearGradient>
</defs>
</svg>
