<svg width="32" height="32" viewBox="0 0 32 32" fill="none" xmlns="http://www.w3.org/2000/svg">
<path d="M15.999 19C16.8275 19 17.499 18.3284 17.499 17.5C17.499 16.6716 16.8275 16 15.999 16C15.1706 16 14.499 16.6716 14.499 17.5C14.499 18.3284 15.1706 19 15.999 19Z" fill="#EC1F1F" fill-opacity="0.76"/>
<path d="M25.999 10H21.499V6.5C21.499 5.04131 20.9196 3.64236 19.8881 2.61091C18.8567 1.57946 17.4577 1 15.999 1C14.5403 1 13.1414 1.57946 12.1099 2.61091C11.0785 3.64236 10.499 5.04131 10.499 6.5V10H5.99902C5.46878 10.0006 4.96042 10.2115 4.58548 10.5865C4.21054 10.9614 3.99963 11.4698 3.99902 12V26C3.99963 26.5302 4.21054 27.0386 4.58548 27.4135C4.96042 27.7885 5.46878 27.9994 5.99902 28H25.999C26.5293 27.9994 27.0376 27.7885 27.4126 27.4135C27.7875 27.0386 27.9984 26.5302 27.999 26V12C27.9984 11.4698 27.7875 10.9614 27.4126 10.5865C27.0376 10.2115 26.5293 10.0006 25.999 10ZM16.999 20.8537V23C16.999 23.2652 16.8937 23.5196 16.7061 23.7071C16.5186 23.8946 16.2642 24 15.999 24C15.7338 24 15.4795 23.8946 15.2919 23.7071C15.1044 23.5196 14.999 23.2652 14.999 23V20.8537C14.1934 20.6135 13.5011 20.0913 13.0488 19.3826C12.5964 18.674 12.4143 17.8262 12.5357 16.9943C12.6571 16.1624 13.0738 15.402 13.7098 14.8521C14.3457 14.3022 15.1583 13.9996 15.999 13.9996C16.8397 13.9996 17.6524 14.3022 18.2883 14.8521C18.9242 15.402 19.341 16.1624 19.4624 16.9943C19.5837 17.8262 19.4016 18.674 18.9493 19.3826C18.497 20.0913 17.8047 20.6135 16.999 20.8537ZM19.499 10H12.499V6.5C12.499 5.57174 12.8678 4.6815 13.5241 4.02513C14.1805 3.36875 15.0708 3 15.999 3C16.9273 3 17.8175 3.36875 18.4739 4.02513C19.1303 4.6815 19.499 5.57174 19.499 6.5V10Z" fill="#EC1F1F" fill-opacity="0.76"/>
</svg>
