<svg width="32" height="32" viewBox="0 0 32 32" fill="none" xmlns="http://www.w3.org/2000/svg">
<path d="M15.9993 19C16.8277 19 17.4993 18.3284 17.4993 17.5C17.4993 16.6716 16.8277 16 15.9993 16C15.1708 16 14.4993 16.6716 14.4993 17.5C14.4993 18.3284 15.1708 19 15.9993 19Z" fill="#EC1F1F" fill-opacity="0.76"/>
<path d="M25.9993 10H21.4993V6.5C21.4993 5.04131 20.9198 3.64236 19.8884 2.61091C18.8569 1.57946 17.458 1 15.9993 1C14.5406 1 13.1416 1.57946 12.1102 2.61091C11.0787 3.64236 10.4993 5.04131 10.4993 6.5V10H5.99927C5.46902 10.0006 4.96067 10.2115 4.58572 10.5865C4.21078 10.9614 3.99987 11.4698 3.99927 12V26C3.99987 26.5302 4.21078 27.0386 4.58572 27.4135C4.96067 27.7885 5.46902 27.9994 5.99927 28H25.9993C26.5295 27.9994 27.0379 27.7885 27.4128 27.4135C27.7878 27.0386 27.9987 26.5302 27.9993 26V12C27.9987 11.4698 27.7878 10.9614 27.4128 10.5865C27.0379 10.2115 26.5295 10.0006 25.9993 10ZM16.9993 20.8537V23C16.9993 23.2652 16.8939 23.5196 16.7064 23.7071C16.5188 23.8946 16.2645 24 15.9993 24C15.7341 24 15.4797 23.8946 15.2922 23.7071C15.1046 23.5196 14.9993 23.2652 14.9993 23V20.8537C14.1936 20.6135 13.5013 20.0913 13.049 19.3826C12.5967 18.674 12.4146 17.8262 12.5359 16.9943C12.6573 16.1624 13.0741 15.402 13.71 14.8521C14.3459 14.3022 15.1586 13.9996 15.9993 13.9996C16.84 13.9996 17.6526 14.3022 18.2885 14.8521C18.9245 15.402 19.3412 16.1624 19.4626 16.9943C19.584 17.8262 19.4018 18.674 18.9495 19.3826C18.4972 20.0913 17.8049 20.6135 16.9993 20.8537ZM19.4993 10H12.4993V6.5C12.4993 5.57174 12.868 4.6815 13.5244 4.02513C14.1808 3.36875 15.071 3 15.9993 3C16.9275 3 17.8178 3.36875 18.4741 4.02513C19.1305 4.6815 19.4993 5.57174 19.4993 6.5V10Z" fill="#EC1F1F" fill-opacity="0.76"/>
</svg>
