<svg width="497" height="75" viewBox="0 0 497 75" fill="none" xmlns="http://www.w3.org/2000/svg">
<path d="M1.49999 54.747C2.86791 53.1144 8.67351 56.7638 15.7761 54.6935C21.3686 53.0634 26.2336 47.8283 33.3934 46.2464C46.9828 43.2439 58.0737 40.1582 64.3756 32.9869C70.6775 25.8156 80.1368 1.49999 91.4091 1.49999C102.681 1.49999 108.419 14.1476 112.671 22.479C116.744 30.4589 124.59 49.6254 137.275 51.7387C151.276 54.0712 162.79 68.2948 179.496 70.6856C188.4 71.9599 195.533 69.4798 203.492 65.6262C211.45 61.7726 209.892 60.1086 227.792 57.1378C242.562 54.6861 246.426 46.2464 260.9 45.2308C275.374 44.2153 282.068 75.9949 297.35 73.342C312.631 70.6892 315.684 77.548 330.049 64.5491C344.413 51.5502 357.684 61.923 375.716 64.5758C393.748 67.2286 398.445 58.9987 407.002 60.0599C415.56 61.121 423.265 41.0575 430.6 38.1393C437.935 35.2212 440.015 45.8218 455.602 45.8218C471.189 45.8218 469.522 56.3419 478.079 57.1378C486.637 57.9336 492.642 56.5906 495.393 60.0393" stroke="#11C939" stroke-width="3" stroke-linecap="round" stroke-linejoin="round"/>
</svg>
