<svg width="497" height="75" viewBox="0 0 497 75" fill="none" xmlns="http://www.w3.org/2000/svg">
<path d="M1.49999 54.7469C2.8679 53.1143 8.67351 56.7637 15.7761 54.6935C21.3686 53.0633 26.2335 47.8283 33.3934 46.2463C46.9828 43.2438 58.0737 40.1581 64.3756 32.9869C70.6775 25.8156 80.1367 1.49999 91.409 1.49999C102.681 1.49999 108.419 14.1476 112.671 22.479C116.744 30.4589 124.59 49.6254 137.275 51.7387C151.276 54.0712 162.79 68.2947 179.496 70.6855C188.4 71.9598 195.533 69.4797 203.492 65.6262C211.45 61.7726 209.892 60.1086 227.791 57.1377C242.562 54.6861 246.426 46.2463 260.9 45.2308C275.374 44.2152 282.068 75.9948 297.349 73.342C312.631 70.6891 315.684 77.5479 330.048 64.5491C344.413 51.5502 357.684 61.9229 375.716 64.5757C393.748 67.2286 398.444 58.9987 407.002 60.0598C415.559 61.1209 423.264 41.0574 430.599 38.1393C437.934 35.2212 440.014 45.8217 455.601 45.8217C471.188 45.8217 469.521 56.3419 478.079 57.1377C486.636 57.9336 492.642 56.5906 495.392 60.0392" stroke="#11C939" stroke-width="3" stroke-linecap="round" stroke-linejoin="round"/>
</svg>
