<svg width="19" height="17" viewBox="0 0 19 17" fill="none" xmlns="http://www.w3.org/2000/svg">
<path d="M18.2554 10.5309H14.0317V14.5252C14.0317 14.6057 14.0317 14.6795 14.0317 14.7566C14.0317 14.8237 14.0317 14.8874 14.029 14.9545C14.0271 15.0983 14.0147 15.2418 13.9918 15.3838C13.9668 15.5248 13.9217 15.6615 13.8576 15.7896C13.7921 15.9175 13.7065 16.0342 13.6041 16.135C13.5012 16.2359 13.3837 16.3207 13.2556 16.3866C13.1259 16.4497 12.9881 16.4949 12.8461 16.5207C12.7037 16.543 12.56 16.5554 12.4158 16.5576C12.3488 16.5576 12.2837 16.561 12.218 16.561H6.78451C6.71743 16.561 6.6527 16.5576 6.58663 16.5576C6.44252 16.5554 6.29874 16.543 6.15634 16.5207C6.01448 16.4949 5.87682 16.4497 5.74718 16.3866C5.61908 16.3207 5.50161 16.2359 5.39872 16.135C5.29625 16.0342 5.21064 15.9176 5.14518 15.7896C5.08117 15.6615 5.03598 15.5248 5.01103 15.3838C4.98796 15.2418 4.9754 15.0983 4.97346 14.9545C4.97346 14.8874 4.97078 14.8237 4.97078 14.7566C4.97078 14.6795 4.97078 14.6057 4.97078 14.5252V10.5309H0.68029C0.246311 10.5309 -0.310416 9.59517 0.210761 9.07533C0.653796 8.63599 7.61692 1.69366 9.07413 0.24818C9.18121 0.116585 9.33246 0.0283857 9.49973 0H9.51113C9.65583 0.0078476 9.79019 0.0774707 9.88005 0.191166C11.3373 1.63664 18.3242 8.63599 18.7676 9.07533C19.2891 9.59517 18.8524 10.5309 18.2554 10.5309Z" fill="black"/>
</svg>
